Coordinates
version=1
nRows=21
nColumns=22
inDegrees=yes

Units are S.I. units (second, meters, Newtons, ...)
If the header above contains a line with 'inDegrees', this indicates whether rotational values are in degrees (yes) or radians (no).

endheader
time	pelvis_tilt	pelvis_list	pelvis_rotation	pelvis_tx	pelvis_ty	pelvis_tz	hip_flexion_r	hip_adduction_r	hip_rotation_r	knee_angle_r	ankle_angle_r	subtalar_angle_r	hip_flexion_l	hip_adduction_l	hip_rotation_l	knee_angle_l	ankle_angle_l	subtalar_angle_l	lumbar_extension	lumbar_bending	lumbar_rotation
      3.15000000	     -3.64106600	     -0.24855334	    -27.91804910	      1.00140716	      0.90997955	      0.34940100	     20.83337817	      0.24904305	      0.15263300	    -76.66661443	     13.55834411	     -4.77515870	     44.46054135	     -4.74497797	     -7.39984140	    -43.02644629	      7.55700066	      0.06980585	     -6.64876248	      0.66551027	     13.76489588
      3.16000000	     -3.43073225	      0.35303992	    -27.94990073	      1.01139335	      0.90903496	      0.35160570	     22.38454266	     -0.47484149	      0.47636418	    -78.62288173	     13.66683320	     -5.96843981	     44.46135091	     -4.07950807	     -7.71246507	    -44.07892509	      8.56091142	     -0.32395618	     -7.06549670	     -0.15837958	     13.33605029
      3.17000000	     -3.29431619	      0.90152713	    -28.00472195	      1.02087043	      0.90857271	      0.35377291	     24.00700258	     -1.05321590	      0.79150193	    -80.23878719	     13.93991890	     -6.94794612	     44.39571125	     -3.52087239	     -8.07084975	    -44.88926101	      9.47272789	     -0.59365757	     -7.41970630	     -0.86857319	     12.91323513
      3.18000000	     -3.23824418	      1.38095903	    -28.06282244	      1.02986322	      0.90862235	      0.35590165	     25.67041987	     -1.47630490	      1.05655247	    -81.47509967	     14.31355057	     -7.68650500	     44.26687503	     -3.06487960	     -8.43129000	    -45.46388494	     10.27854596	     -0.77811403	     -7.70652847	     -1.44389912	     12.46434790
      3.19000000	     -3.24645039	      1.78283078	    -28.08987833	      1.03840714	      0.90921367	      0.35797979	     27.32222925	     -1.76158673	      1.22532860	    -82.30595235	     14.79741289	     -8.12905690	     44.06545298	     -2.68217303	     -8.74965512	    -45.81491679	     10.94755770	     -0.88192167	     -7.94741585	     -1.89037903	     11.95307968
      3.20000000	     -3.34513682	      2.09190063	    -28.06424592	      1.04653955	      0.91030455	      0.35998489	     28.95233936	     -1.89615435	      1.26289505	    -82.71230669	     15.27011800	     -8.44390402	     43.82149933	     -2.36721100	     -8.95519187	    -45.95967306	     11.54955745	     -0.97414143	     -8.12674243	     -2.17476990	     11.38600300
      3.21000000	     -3.51003583	      2.33038376	    -27.96577597	      1.05431672	      0.91185572	      0.36187093	     30.53223622	     -1.95208594	      1.14102462	    -82.70845706	     15.75017415	     -8.57438106	     43.54309438	     -2.08694529	     -9.07519237	    -45.93523741	     12.02886138	     -1.04412665	     -8.26371284	     -2.33311859	     10.76044675
      3.22000000	     -3.72907085	      2.51070135	    -27.79644441	      1.06177000	      0.91384620	      0.36366535	     32.03892210	     -1.95131897	      0.87808155	    -82.30387753	     16.26151875	     -8.48718047	     43.22458800	     -1.81969611	     -9.08607662	    -45.74569558	     12.39558281	     -1.08582880	     -8.36718045	     -2.39425928	     10.07477314
      3.23000000	     -3.98940221	      2.64387161	    -27.55977396	      1.06896501	      0.91625474	      0.36531709	     33.44884185	     -1.92674703	      0.49232766	    -81.50965948	     16.82357955	     -8.19535302	     42.85920183	     -1.54141971	     -8.97675257	    -45.39241870	     12.66045653	     -1.09634136	     -8.44768972	     -2.36566317	      9.35871244
      3.24000000	     -4.29682855	      2.73626143	    -27.27649944	      1.07591488	      0.91899950	      0.36690723	     34.76703910	     -1.87865096	      0.00232428	    -80.35491918	     17.43961746	     -7.62707901	     42.46721146	     -1.28298671	     -8.79940513	    -44.90777679	     12.86336628	     -1.08014175	     -8.49231902	     -2.26825520	      8.65398557
      3.25000000	     -4.57786006	      2.79746817	    -26.94031892	      1.08269782	      0.92217041	      0.36835377	     35.91020499	     -1.88182064	     -0.59522001	    -78.85052960	     18.07946511	     -7.29416678	     41.97197974	     -0.97874384	     -8.52250477	    -44.27057832	     12.92936310	     -1.04460983	     -8.57894202	     -2.13778608	      7.95399525
      3.26000000	     -4.89645208	      2.82798215	    -26.60224799	      1.08929889	      0.92556982	      0.36978665	     36.94680258	     -1.86727435	     -1.25082445	    -77.03259717	     18.73437962	     -6.87485847	     41.46253393	     -0.72174393	     -8.23140688	    -43.54874486	     12.96138216	     -0.99706164	     -8.62559920	     -1.95131214	      7.29716611
      3.27000000	     -5.21185124	      2.83821221	    -26.27677164	      1.09571463	      0.92920713	      0.37123208	     37.84316691	     -1.85242560	     -1.94215131	    -74.93580244	     19.39138519	     -6.56544094	     40.89743780	     -0.49310971	     -7.94194787	    -42.72883987	     12.94072399	     -0.94507026	     -8.67617568	     -1.74955125	      6.71599886
      3.28000000	     -5.52669597	      2.82156557	    -25.98222604	      1.10199134	      0.93303005	      0.37272070	     38.58906634	     -1.82061047	     -2.65544638	    -72.57550288	     19.99757461	     -6.36380713	     40.28735586	     -0.30955141	     -7.65386651	    -41.84002723	     12.86879605	     -0.88993615	     -8.71612042	     -1.52239947	      6.21598097
      3.29000000	     -5.83889432	      2.78001913	    -25.71680080	      1.10809505	      0.93696829	      0.37431565	     39.18315807	     -1.74867595	     -3.36868715	    -69.98577889	     20.52813031	     -6.26583383	     39.64349933	     -0.18147014	     -7.39160333	    -40.90057049	     12.76146512	     -0.83437613	     -8.75157690	     -1.28320119	      5.76527751
      3.30000000	     -6.14985244	      2.71252725	    -25.49580231	      1.11406523	      0.94094283	      0.37604009	     39.62515312	     -1.62169056	     -4.06060741	    -67.20076891	     20.95698451	     -6.20523153	     38.97595939	     -0.11709651	     -7.15905603	    -39.93550945	     12.62715072	     -0.77731990	     -8.77165078	     -1.02983600	      5.39584607
      3.31000000	     -6.44594909	      2.59591940	    -25.31427019	      1.11992990	      0.94492838	      0.37790915	     39.88528938	     -1.40210993	     -4.69799979	    -64.24514348	     21.19715840	     -6.09632087	     38.26959427	     -0.12102411	     -6.92593603	    -38.96425523	     12.52363377	     -0.70958717	     -8.79680496	     -0.73931021	      5.07147165
      3.32000000	     -6.74281441	      2.46870927	    -25.17341193	      1.12567521	      0.94878079	      0.37999579	     40.00839059	     -1.09466755	     -5.22846882	    -61.17802882	     21.29700562	     -5.85853784	     37.56533794	     -0.18475760	     -6.74036538	    -38.00238635	     12.41861022	     -0.64341227	     -8.78577519	     -0.46324016	      4.80775185
      3.33000000	     -7.02643974	      2.32510801	    -25.06410146	      1.13134799	      0.95245734	      0.38228023	     39.98302971	     -0.69050364	     -5.60679714	    -58.04839883	     21.20242913	     -5.40455715	     36.85355261	     -0.29310251	     -6.57871077	    -37.06560657	     12.36092734	     -0.57710715	     -8.74999493	     -0.19398794	      4.59164666
      3.34000000	     -7.28032458	      2.18635455	    -24.97903308	      1.13699902	      0.95590360	      0.38476058	     39.81358915	     -0.21820758	     -5.79213777	    -54.91964092	     20.94813019	     -4.61416860	     36.12750297	     -0.41008835	     -6.42533294	    -36.15824327	     12.35184354	     -0.50854009	     -8.68589406	      0.03371047	      4.43920060
      3.35000000	     -7.51622697	      2.07798482	    -24.90770496	      1.14261221	      0.95902536	      0.38741889	     39.54335841	      0.31401403	     -5.71602924	    -51.85974837	     20.46917036	     -3.51455486	     35.42891124	     -0.52459007	     -6.32129109	    -35.31005469	     12.34208287	     -0.45439426	     -8.56908855	      0.20459661	      4.27103600
